<svg width="1034" height="345" viewBox="0 0 1034 345" fill="none" xmlns="http://www.w3.org/2000/svg">
<rect width="1034" height="345" fill="white"/>
<path d="M359.24 221.814L355.754 221.854C354.023 221.87 352.493 220.731 352.022 219.067C350.879 215.013 348.749 207.458 347.315 202.36C346.844 200.685 346.9 198.965 347.399 197.385C317.782 189.332 302.281 155.84 298.235 145.811C280.134 141.673 260.509 138.502 239.685 140.512C178.041 146.459 167.175 225.332 112.939 202.567C112.009 202.176 109.252 200.272 107.487 199.015C106.54 198.345 105.279 198.317 104.304 198.948C102.914 199.842 102.572 201.735 103.586 203.041C106.181 206.386 112.9 212.244 129.656 216.571C160.158 224.456 191.866 184.581 202.177 186.82C212.959 189.159 215.576 208.206 218.333 220.815C219.493 226.136 224.218 229.928 229.681 229.928H243.764C246.045 229.928 247.889 228.069 247.855 225.79C247.822 223.562 246 221.77 243.764 221.77H240.525C238.345 221.77 237.157 220.117 236.838 217.744C236.838 217.744 235.907 200.182 241.214 196.379C248.163 191.399 270.798 203.739 292.351 201.154C294.335 200.914 296.212 202.109 296.84 203.996L302.488 220.927C304.282 226.304 309.331 229.928 315.013 229.928H327.958C330.267 229.928 332.117 228.029 332.049 225.734C331.988 223.529 330.172 221.775 327.958 221.775H324.058C321.721 221.775 319.687 220.162 319.199 217.883C318 212.294 316.431 201.21 323.812 201.21C331.192 201.21 333.77 214.349 336.824 222.814C338.365 227.086 342.428 229.934 346.984 229.934H359.296C361.543 229.934 363.364 228.119 363.364 225.88C363.364 223.624 361.515 221.798 359.251 221.826L359.24 221.814Z" fill="#202020"/>
<path d="M439.87 199.529C429.665 185.424 390.678 157.722 372.661 156.985C371.535 156.94 370.521 156.287 369.938 155.321C368.122 152.316 363.835 146.481 358.713 148C353.423 149.575 354.891 153.422 356.399 155.739C356.92 156.538 356.331 157.593 355.379 157.554C345.409 157.169 334.465 154.751 322.663 151.825C325.112 156.784 337.401 180.119 356.55 189.472C383.466 177.361 425.513 199.093 435.32 204.549C436.597 205.258 438.172 205.096 439.282 204.152C440.643 202.991 440.918 200.975 439.87 199.529ZM381 175.585C378.226 175.585 375.979 173.346 375.979 170.582C375.979 167.818 378.226 165.578 381 165.578C383.774 165.578 386.021 167.818 386.021 170.582C386.021 173.346 383.774 175.585 381 175.585Z" fill="#202020"/>
<path d="M501.659 203.901V153.601H485.313V140.093H495.192C499.866 140.093 502.377 137.608 502.377 132.985V112H516.751V140.082H535.076V153.589H516.936V210.473C516.936 214.382 518.55 215.806 522.506 215.806H537.783V229.314H528.805C510.48 229.314 501.676 219.715 501.676 203.896L501.665 203.907L501.659 203.901Z" fill="#202020"/>
<path d="M594.91 140.082V153.59H565.27V229.308H549.82V157.152C549.82 146.13 555.934 140.093 566.531 140.093L566.52 140.082H594.91Z" fill="#202020"/>
<path d="M598.687 204.426C598.687 188.78 609.643 179.008 630.663 177.584L653.662 175.987C657.977 175.635 660.129 173.86 660.129 167.991C660.129 155.371 650.608 150.569 638.923 150.569C625.625 150.569 617.718 156.789 616.283 167.991H601.192C603.887 147.732 617.539 137.413 639.282 137.413C661.026 137.413 675.932 148.436 675.932 173.502V215.812H683.116V229.32H676.465C667.487 229.32 662.27 223.808 662.27 213.673V212.434C656.884 224.88 645.385 231.989 629.924 231.989C610.158 231.989 598.659 220.257 598.659 204.437L598.681 204.426H598.687ZM660.673 187.015L632.641 188.791C619.528 189.679 614.501 194.839 614.501 203.723C614.501 214.209 621.327 219.006 632.115 219.006C648.461 219.006 660.684 207.983 660.684 190.036H660.673V187.015Z" fill="#202020"/>
<path d="M691.567 184.704C691.567 156.086 709.181 137.419 735.228 137.419C757.33 137.419 773.133 150.926 776.014 173.508H760.564C758.585 159.822 748.352 150.937 735.054 150.937C718.707 150.937 707.567 164.272 707.567 184.715C707.567 205.158 718.881 218.492 735.239 218.492C748.532 218.492 759.678 209.43 761.645 195.386H776.922C774.411 218.141 757.515 232 735.239 232C709.192 232 691.579 213.333 691.579 184.715L691.567 184.704Z" fill="#202020"/>
<path d="M786.443 184.882C786.443 156.443 803.154 137.419 829.75 137.419C856.347 137.419 873.949 158.04 870.172 189.143H802.257C803.154 207.626 813.219 218.833 830.103 218.833C844.298 218.833 851.483 210.658 853.646 204.075H869.096C864.96 219.721 851.847 231.989 830.103 231.989C803.333 231.989 786.443 213.506 786.443 184.888V184.882ZM854.71 176.881C855.254 162.485 846.265 150.39 829.022 150.39C814.468 150.39 804.409 160.525 802.616 176.881H854.716H854.71Z" fill="#202020"/>
<path d="M901.61 140.082H930V153.59H900.36V229.308H884.916V157.152C884.916 146.13 891.024 140.093 901.627 140.093L901.616 140.082H901.61Z" fill="#202020"/>
</svg>
